<?xml version="1.0" standalone="no"?>
<!DOCTYPE svg PUBLIC "-//W3C//DTD SVG 20010904//EN"
 "http://www.w3.org/TR/2001/REC-SVG-20010904/DTD/svg10.dtd">
<svg version="1.0" xmlns="http://www.w3.org/2000/svg"
 width="128.000000pt" height="128.000000pt" viewBox="0 0 128.000000 128.000000"
 preserveAspectRatio="xMidYMid meet">
<metadata>
Created by potrace 1.15, written by Peter Selinger 2001-2017
</metadata>
<g transform="translate(0.000000,128.000000) scale(0.100000,-0.100000)"
fill="#000000" stroke="none">
<path d="M0 640 l0 -640 640 0 640 0 0 640 0 640 -640 0 -640 0 0 -640z m508
248 c-3 -46 -6 -53 -28 -58 -24 -6 -25 -10 -31 -105 -8 -121 -14 -153 -38
-184 -18 -24 -18 -25 0 -50 23 -32 39 -112 39 -197 0 -78 6 -94 36 -94 22 0
24 -4 24 -56 l0 -57 -42 6 c-80 11 -107 72 -108 249 0 70 -13 106 -41 116 -18
7 -22 17 -23 60 -1 42 3 53 17 58 34 11 45 47 52 164 3 63 11 128 17 143 13
34 51 56 96 57 l33 0 -3 -52z m486 41 c36 -17 56 -67 57 -146 1 -120 13 -174
42 -198 23 -18 27 -28 27 -73 0 -39 -4 -52 -15 -52 -30 0 -43 -44 -52 -179
-10 -133 -10 -134 -41 -163 -23 -19 -43 -28 -67 -28 l-35 0 0 55 c0 46 3 55
18 55 33 0 42 22 42 99 1 98 13 156 39 191 11 16 17 31 12 34 -25 16 -43 85
-50 190 l-6 111 -27 3 c-27 3 -28 6 -28 58 0 53 0 54 30 54 16 0 40 -5 54 -11z
m-328 -35 c-21 -20 -20 -58 0 -75 36 -30 73 41 39 75 -9 9 -12 16 -7 16 20 0
34 -31 30 -65 l-4 -35 46 -1 c25 0 54 -2 65 -4 11 -2 35 -7 53 -10 38 -7 42
-22 7 -31 -23 -6 -24 -10 -27 -87 -2 -65 -6 -82 -18 -82 -12 0 -16 17 -18 78
-3 74 -4 77 -27 77 -24 0 -24 -1 -27 -112 -2 -93 -6 -113 -18 -113 -12 0 -16
20 -18 113 l-3 112 -82 0 c-84 0 -157 14 -157 30 0 9 24 15 100 25 45 7 46 7
42 41 -4 33 10 64 30 64 5 0 2 -7 -6 -16z m-402 -158 l-34 -34 0 -177 c0 -183
4 -205 44 -237 21 -17 21 -18 -12 -18 -42 0 -91 46 -93 87 -1 15 -1 99 -1 185
1 126 4 162 16 180 20 29 54 47 88 48 l26 0 -34 -34z"/>
</g>
</svg>
